<?xml version="1.0" encoding="utf-8"?>
<!-- Generator: Adobe Illustrator 24.0.1, SVG Export Plug-In . SVG Version: 6.00 Build 0)  -->
<svg version="1.1" id="Capa_6" xmlns="http://www.w3.org/2000/svg" xmlns:xlink="http://www.w3.org/1999/xlink" x="0px" y="0px"
	 viewBox="0 0 267.8 274" style="enable-background:new 0 0 267.8 274;" xml:space="preserve">
<style type="text/css">
	.st0{clip-path:url(#SVGID_2_);}
	.st1{fill:#EDEDED;stroke:#7F7F7F;stroke-width:1.5;stroke-miterlimit:10;}
	.st2{clip-path:url(#SVGID_4_);}
	.st3{clip-path:url(#SVGID_6_);}
	.st4{clip-path:url(#SVGID_8_);}
	.st5{clip-path:url(#SVGID_10_);}
	.st6{clip-path:url(#SVGID_12_);}
	.st7{clip-path:url(#SVGID_14_);}
	.st8{fill:#DADADA;}
	.st9{clip-path:url(#SVGID_16_);}
	.st10{clip-path:url(#SVGID_18_);}
	.st11{clip-path:url(#SVGID_20_);}
	.st12{clip-path:url(#SVGID_22_);}
	.st13{clip-path:url(#SVGID_24_);}
	.st14{clip-path:url(#SVGID_26_);}
	.st15{clip-path:url(#SVGID_28_);}
	.st16{clip-path:url(#SVGID_30_);}
	.st17{clip-path:url(#SVGID_32_);}
	.st18{clip-path:url(#SVGID_34_);}
	.st19{clip-path:url(#SVGID_36_);}
	.st20{clip-path:url(#SVGID_38_);}
	.st21{clip-path:url(#SVGID_40_);}
	.st22{fill:#3EA679;}
	.st23{clip-path:url(#SVGID_42_);}
	.st24{fill:#3EA679;stroke:#7F7F7F;stroke-width:1.5;stroke-miterlimit:10;}
	.st25{fill:none;stroke:#7F7F7F;stroke-width:1.5;stroke-miterlimit:10;}
	.st26{clip-path:url(#SVGID_44_);}
	.st27{clip-path:url(#SVGID_46_);}
	.st28{fill:none;stroke:#7F7F7F;stroke-width:1.5;stroke-linecap:round;stroke-linejoin:round;}
	.st29{clip-path:url(#SVGID_48_);}
	.st30{clip-path:url(#SVGID_50_);}
	.st31{clip-path:url(#SVGID_52_);}
	.st32{clip-path:url(#SVGID_54_);}
	.st33{clip-path:url(#SVGID_56_);}
	.st34{clip-path:url(#SVGID_58_);}
	.st35{clip-path:url(#SVGID_60_);}
	.st36{clip-path:url(#SVGID_62_);}
	.st37{clip-path:url(#SVGID_64_);}
	.st38{clip-path:url(#SVGID_66_);}
	.st39{fill:none;stroke:#7F7F7F;stroke-width:1.5;stroke-linecap:round;stroke-linejoin:round;stroke-dasharray:4.86,4.86;}
	.st40{clip-path:url(#SVGID_68_);}
	.st41{clip-path:url(#SVGID_70_);}
	.st42{clip-path:url(#SVGID_72_);}
	.st43{clip-path:url(#SVGID_74_);}
	.st44{fill:none;stroke:#7F7F7F;stroke-width:1.36;stroke-linecap:round;stroke-linejoin:round;}
	.st45{fill:#7F7F7F;}
</style>
<title>smart-agriculture-solution-libelium</title>
<g>
	<g>
		<defs>
			<rect id="SVGID_1_" x="95.4" y="61.2" width="15" height="8.1"/>
		</defs>
		<clipPath id="SVGID_2_">
			<use xlink:href="#SVGID_1_"  style="overflow:visible;"/>
		</clipPath>
		<g class="st0">
			<rect x="66.2" y="30.3" class="st1" width="73.4" height="69.1"/>
		</g>
	</g>
	<g>
		<defs>
			<rect id="SVGID_3_" x="113.6" y="217.8" width="4.9" height="44.9"/>
		</defs>
		<clipPath id="SVGID_4_">
			<use xlink:href="#SVGID_3_"  style="overflow:visible;"/>
		</clipPath>
		<g class="st2">
			<rect x="104.1" y="46.2" class="st1" width="23.9" height="384.3"/>
		</g>
	</g>
	<g>
		<defs>
			<rect id="SVGID_5_" x="130" y="217.8" width="4.9" height="44.9"/>
		</defs>
		<clipPath id="SVGID_6_">
			<use xlink:href="#SVGID_5_"  style="overflow:visible;"/>
		</clipPath>
		<g class="st3">
			<rect x="120.5" y="46.2" class="st1" width="23.9" height="384.3"/>
		</g>
	</g>
	<g>
		<defs>
			<rect id="SVGID_7_" x="146.6" y="217.8" width="5" height="44.9"/>
		</defs>
		<clipPath id="SVGID_8_">
			<use xlink:href="#SVGID_7_"  style="overflow:visible;"/>
		</clipPath>
		<g class="st4">
			<rect x="136.9" y="46.2" class="st1" width="24.6" height="384.3"/>
		</g>
	</g>
	<g>
		<defs>
			<circle id="SVGID_9_" cx="106.5" cy="27.4" r="6.2"/>
		</defs>
		<clipPath id="SVGID_10_">
			<use xlink:href="#SVGID_9_"  style="overflow:visible;"/>
		</clipPath>
		<g class="st5">
			<rect x="85.6" y="11.6" class="st1" width="73.4" height="69.1"/>
		</g>
	</g>
	<g>
		<defs>
			<circle id="SVGID_11_" cx="155.4" cy="27.4" r="6.2"/>
		</defs>
		<clipPath id="SVGID_12_">
			<use xlink:href="#SVGID_11_"  style="overflow:visible;"/>
		</clipPath>
		<g class="st6">
			<rect x="107.2" y="17.6" class="st1" width="73.4" height="69.1"/>
		</g>
	</g>
	<g>
		<defs>
			<circle id="SVGID_13_" cx="168.5" cy="14.2" r="3"/>
		</defs>
		<clipPath id="SVGID_14_">
			<use xlink:href="#SVGID_13_"  style="overflow:visible;"/>
		</clipPath>
		<g class="st7">
			<rect x="123.8" y="-3.5" class="st8" width="73.4" height="69.1"/>
		</g>
	</g>
	<g>
		<defs>
			<circle id="SVGID_15_" cx="143.9" cy="14.1" r="3"/>
		</defs>
		<clipPath id="SVGID_16_">
			<use xlink:href="#SVGID_15_"  style="overflow:visible;"/>
		</clipPath>
		<g class="st9">
			<rect x="103.4" y="6" class="st8" width="73.4" height="69.1"/>
		</g>
	</g>
	<g>
		<defs>
			<circle id="SVGID_17_" cx="95" cy="14.1" r="3"/>
		</defs>
		<clipPath id="SVGID_18_">
			<use xlink:href="#SVGID_17_"  style="overflow:visible;"/>
		</clipPath>
		<g class="st10">
			<rect x="84.4" y="6.3" class="st8" width="73.4" height="69.1"/>
		</g>
	</g>
	<g>
		<defs>
			<rect id="SVGID_19_" x="114.1" y="61.2" width="15" height="8.1"/>
		</defs>
		<clipPath id="SVGID_20_">
			<use xlink:href="#SVGID_19_"  style="overflow:visible;"/>
		</clipPath>
		<g class="st11">
			<rect x="98.7" y="30.3" class="st1" width="73.4" height="69.1"/>
		</g>
	</g>
	<g>
		<defs>
			<rect id="SVGID_21_" x="132.6" y="61.2" width="15" height="8.1"/>
		</defs>
		<clipPath id="SVGID_22_">
			<use xlink:href="#SVGID_21_"  style="overflow:visible;"/>
		</clipPath>
		<g class="st12">
			<rect x="107.3" y="25.5" class="st1" width="73.4" height="69.1"/>
		</g>
	</g>
	<g>
		<defs>
			<rect id="SVGID_23_" x="151.2" y="61.2" width="15" height="8.1"/>
		</defs>
		<clipPath id="SVGID_24_">
			<use xlink:href="#SVGID_23_"  style="overflow:visible;"/>
		</clipPath>
		<g class="st13">
			<rect x="107.3" y="25.5" class="st1" width="73.4" height="69.1"/>
		</g>
	</g>
	<g>
		<defs>
			<rect id="SVGID_25_" x="95.4" y="72.5" width="15" height="8.1"/>
		</defs>
		<clipPath id="SVGID_26_">
			<use xlink:href="#SVGID_25_"  style="overflow:visible;"/>
		</clipPath>
		<g class="st14">
			<rect x="74" y="31.8" class="st1" width="73.4" height="69.1"/>
		</g>
	</g>
	<g>
		<defs>
			<rect id="SVGID_27_" x="114.1" y="72.5" width="15" height="8.1"/>
		</defs>
		<clipPath id="SVGID_28_">
			<use xlink:href="#SVGID_27_"  style="overflow:visible;"/>
		</clipPath>
		<g class="st15">
			<rect x="90.8" y="42" class="st1" width="73.4" height="69.1"/>
		</g>
	</g>
	<g>
		<defs>
			<rect id="SVGID_29_" x="132.6" y="72.5" width="15" height="8.1"/>
		</defs>
		<clipPath id="SVGID_30_">
			<use xlink:href="#SVGID_29_"  style="overflow:visible;"/>
		</clipPath>
		<g class="st16">
			<rect x="104.4" y="32.8" class="st1" width="73.4" height="69.1"/>
		</g>
	</g>
	<g>
		<defs>
			<rect id="SVGID_31_" x="151.2" y="72.5" width="15" height="8.1"/>
		</defs>
		<clipPath id="SVGID_32_">
			<use xlink:href="#SVGID_31_"  style="overflow:visible;"/>
		</clipPath>
		<g class="st17">
			<rect x="107.3" y="25.5" class="st1" width="73.4" height="69.1"/>
		</g>
	</g>
	<g>
		<defs>
			<rect id="SVGID_33_" x="95.4" y="84" width="15" height="8.1"/>
		</defs>
		<clipPath id="SVGID_34_">
			<use xlink:href="#SVGID_33_"  style="overflow:visible;"/>
		</clipPath>
		<g class="st18">
			<rect x="69.8" y="53.5" class="st1" width="73.4" height="69.1"/>
		</g>
	</g>
	<g>
		<defs>
			<rect id="SVGID_35_" x="114.1" y="84" width="15" height="8.1"/>
		</defs>
		<clipPath id="SVGID_36_">
			<use xlink:href="#SVGID_35_"  style="overflow:visible;"/>
		</clipPath>
		<g class="st19">
			<rect x="87.4" y="52.4" class="st1" width="73.4" height="69.1"/>
		</g>
	</g>
	<g>
		<defs>
			<rect id="SVGID_37_" x="132.6" y="84" width="15" height="8.1"/>
		</defs>
		<clipPath id="SVGID_38_">
			<use xlink:href="#SVGID_37_"  style="overflow:visible;"/>
		</clipPath>
		<g class="st20">
			<rect x="107.3" y="25.5" class="st1" width="73.4" height="69.1"/>
		</g>
	</g>
	<g>
		<defs>
			<rect id="SVGID_39_" x="151.2" y="84" width="15" height="8.1"/>
		</defs>
		<clipPath id="SVGID_40_">
			<use xlink:href="#SVGID_39_"  style="overflow:visible;"/>
		</clipPath>
		<g class="st21">
			<rect x="108.7" y="31.1" class="st1" width="73.4" height="69.1"/>
		</g>
	</g>
	<path class="st22" d="M72,32.8c1.4,0,2.5-1.1,2.5-2.5c0-1.4-1.1-2.5-2.5-2.5c-32.9,0-59.6,26.7-59.7,59.7c-0.1,1.4,1,2.6,2.4,2.7
		s2.6-1,2.7-2.4c0-0.1,0-0.2,0-0.3C17.4,57.3,41.8,32.8,72,32.8z"/>
	<g>
		<defs>
			<path id="SVGID_41_" d="M72,32.8c1.4,0,2.5-1.1,2.5-2.5c0-1.4-1.1-2.5-2.5-2.5c-32.9,0-59.6,26.7-59.7,59.7
				c-0.1,1.4,1,2.6,2.4,2.7s2.6-1,2.7-2.4c0-0.1,0-0.2,0-0.3C17.4,57.3,41.8,32.8,72,32.8z"/>
		</defs>
		<clipPath id="SVGID_42_">
			<use xlink:href="#SVGID_41_"  style="overflow:visible;"/>
		</clipPath>
		<g class="st23">
			<rect x="6.1" y="24.3" class="st24" width="73.4" height="69.1"/>
		</g>
	</g>
	<path class="st25" d="M72,32.8c1.4,0,2.5-1.1,2.5-2.5c0-1.4-1.1-2.5-2.5-2.5c-32.9,0-59.6,26.7-59.7,59.7c-0.1,1.4,1,2.6,2.4,2.7
		s2.6-1,2.7-2.4c0-0.1,0-0.2,0-0.3C17.4,57.3,41.8,32.8,72,32.8z"/>
	<path class="st22" d="M72,46.1c-22.8,0.1-41.2,18.5-41.2,41.2c-0.1,1.4,1,2.6,2.4,2.7c1.4,0.1,2.6-1,2.7-2.4c0-0.1,0-0.2,0-0.3
		C35.9,67.4,52,51.3,72,51.2c1.4,0,2.5-1.1,2.5-2.5S73.4,46.1,72,46.1z"/>
	<g>
		<defs>
			<path id="SVGID_43_" d="M72,46.1c-22.8,0.1-41.2,18.5-41.2,41.2c-0.1,1.4,1,2.6,2.4,2.7c1.4,0.1,2.6-1,2.7-2.4c0-0.1,0-0.2,0-0.3
				C35.9,67.4,52,51.3,72,51.2c1.4,0,2.5-1.1,2.5-2.5S73.4,46.1,72,46.1z"/>
		</defs>
		<clipPath id="SVGID_44_">
			<use xlink:href="#SVGID_43_"  style="overflow:visible;"/>
		</clipPath>
		<g class="st26">
			<rect x="6.1" y="24.3" class="st24" width="73.4" height="69.1"/>
		</g>
	</g>
	<path class="st25" d="M72,46.1c-22.8,0.1-41.2,18.5-41.2,41.2c-0.1,1.4,1,2.6,2.4,2.7c1.4,0.1,2.6-1,2.7-2.4c0-0.1,0-0.2,0-0.3
		C35.9,67.4,52,51.3,72,51.2c1.4,0,2.5-1.1,2.5-2.5S73.4,46.1,72,46.1z"/>
	<path class="st22" d="M72,64.8c-12.5,0-22.5,10.1-22.6,22.6c0,1.4,1.1,2.5,2.5,2.5s2.5-1.1,2.5-2.5c0-9.6,7.8-17.5,17.5-17.5
		c1.4-0.1,2.5-1.3,2.4-2.7C74.3,65.9,73.2,64.9,72,64.8z"/>
	<g>
		<defs>
			<path id="SVGID_45_" d="M72,64.8c-12.5,0-22.5,10.1-22.6,22.6c0,1.4,1.1,2.5,2.5,2.5s2.5-1.1,2.5-2.5c0-9.6,7.8-17.5,17.5-17.5
				c1.4-0.1,2.5-1.3,2.4-2.7C74.3,65.9,73.2,64.9,72,64.8z"/>
		</defs>
		<clipPath id="SVGID_46_">
			<use xlink:href="#SVGID_45_"  style="overflow:visible;"/>
		</clipPath>
		<g class="st27">
			<rect x="6.1" y="24.3" class="st24" width="73.4" height="69.1"/>
		</g>
	</g>
	<path class="st25" d="M72,64.8c-12.5,0-22.5,10.1-22.6,22.6c0,1.4,1.1,2.5,2.5,2.5s2.5-1.1,2.5-2.5c0-9.6,7.8-17.5,17.5-17.5
		c1.4-0.1,2.5-1.3,2.4-2.7C74.3,65.9,73.2,64.9,72,64.8z"/>
	<path class="st28" d="M114.3,195.6H98.4c-4.1,0-7.6-3.6-7.6-8.6v-28.8H72.2c-3.5,0.1-6.4-2.7-6.6-6.2V87.7c0-3.5,2.1-6.1,7.1-6.1"
		/>
	<path class="st28" d="M110,198.2v17.2c0,1.9,0.6,2.6,2,2.6h4.3h-2.6v42.5c-0.1,1.3,0.9,2.5,2.2,2.6c0.1,0,0.3,0,0.4,0
		c1.4,0,2.6-1.1,2.6-2.6c0,0,0,0,0-0.1V218h1.5c1.2,0,2.1-0.4,2.1-2.6v-19.8h9.3"/>
	<g>
		<defs>
			<path id="SVGID_47_" d="M109.8,128.9h41.4c3.8,0,6.9,3.1,6.9,6.9v40.9c0,3.8-3.1,6.9-6.9,6.9h-41.4c-3.8,0-6.9-3.1-6.9-6.9v-40.9
				C102.9,132,106,128.9,109.8,128.9z"/>
		</defs>
		<clipPath id="SVGID_48_">
			<use xlink:href="#SVGID_47_"  style="overflow:visible;"/>
		</clipPath>
		<g class="st29">
			<rect x="102.8" y="128.4" class="st22" width="55.6" height="55.6"/>
		</g>
	</g>
	<path class="st28" d="M126.4,198.2v17.2c0,1.9,0.6,2.6,1.9,2.6h4.3H130v42.5c-0.1,1.3,0.9,2.5,2.2,2.6c0.1,0,0.3,0,0.4,0
		c1.4,0,2.6-1.1,2.6-2.6c0,0,0,0,0-0.1V218h1.5c1.2,0,2-0.4,2-2.6v-19.8h9.3"/>
	<path class="st28" d="M142.8,198.2v17.2c0,1.9,0.6,2.6,2,2.6h4.3h-2.6v42.5c-0.1,1.3,0.9,2.5,2.2,2.6c0.1,0,0.3,0,0.4,0
		c1.4,0,2.6-1.1,2.6-2.6c0,0,0,0,0,0V218h1.5c1.1,0,2.1-0.4,2.1-2.6v-19.8h8.7c4.2,0,7.2-4.3,7.2-7.1v-42.2v5.7h4.2
		c2.8,0.2,5.2-2,5.4-4.8c0-0.1,0-0.3,0-0.4v-4.3c0-1.5-1.6-5.1-5.2-5.1h-4.4v-13.9c0-3.5-2.4-8-7.5-8H99.1c-4.5,0-8.3,3.6-8.3,7.2
		v20.9h12.3v-9.1c0.1-3.2,2.9-5.8,6.1-5.7h43c3.2,0.1,5.8,2.7,5.8,5.9v42.6c0,3.7-2.2,6.4-5.4,6.4h-42.9c-4.2,0-6.7-2.5-6.7-6.4
		v-29.8"/>
	<path class="st28" d="M87.4,146h-9.9V89c0-2.4-0.2-3.7-1-4.7"/>
	<path class="st28" d="M33.3,103.1v160"/>
	<g>
		<defs>
			<path id="SVGID_49_" d="M24,138.1c4.4,4.3,4,11.7,4,11.7s-7.4,0.3-11.7-4s-4-11.7-4-11.7S19.7,133.7,24,138.1z"/>
		</defs>
		<clipPath id="SVGID_50_">
			<use xlink:href="#SVGID_49_"  style="overflow:visible;"/>
		</clipPath>
		<g class="st30">
			<rect x="-9.6" y="105.9" class="st8" width="73.4" height="69"/>
		</g>
	</g>
	<g>
		<defs>
			<path id="SVGID_51_" d="M24,116.6c4.4,4.3,4,11.7,4,11.7s-7.4,0.3-11.7-4c-4.3-4.3-4-11.7-4-11.7S19.7,112.3,24,116.6z"/>
		</defs>
		<clipPath id="SVGID_52_">
			<use xlink:href="#SVGID_51_"  style="overflow:visible;"/>
		</clipPath>
		<g class="st31">
			<rect x="-9.6" y="103.1" class="st8" width="73.4" height="69"/>
		</g>
	</g>
	<g>
		<defs>
			<path id="SVGID_53_" d="M23.1,159.5c4.4,4.3,4,11.7,4,11.7s-7.4,0.3-11.7-4s-4-11.7-4-11.7S18.8,155.1,23.1,159.5z"/>
		</defs>
		<clipPath id="SVGID_54_">
			<use xlink:href="#SVGID_53_"  style="overflow:visible;"/>
		</clipPath>
		<g class="st32">
			<rect x="-9.6" y="105.9" class="st1" width="73.4" height="69"/>
		</g>
	</g>
	<g>
		<defs>
			<path id="SVGID_55_" d="M42.7,138.1c-4.3,4.3-4,11.7-4,11.7s7.4,0.3,11.7-4s4-11.7,4-11.7S47,133.7,42.7,138.1z"/>
		</defs>
		<clipPath id="SVGID_56_">
			<use xlink:href="#SVGID_55_"  style="overflow:visible;"/>
		</clipPath>
		<g class="st33">
			<rect x="-9.6" y="105.9" class="st8" width="73.4" height="69"/>
		</g>
	</g>
	<g>
		<defs>
			<path id="SVGID_57_" d="M42.7,116.6c-4.3,4.3-4,11.7-4,11.7s7.4,0.3,11.7-4c4.4-4.3,4-11.7,4-11.7S47,112.3,42.7,116.6z"/>
		</defs>
		<clipPath id="SVGID_58_">
			<use xlink:href="#SVGID_57_"  style="overflow:visible;"/>
		</clipPath>
		<g class="st34">
			<rect x="-9.6" y="105.9" class="st1" width="73.4" height="69"/>
		</g>
	</g>
	<g>
		<defs>
			<path id="SVGID_59_" d="M43.5,159.5c-4.3,4.3-4,11.7-4,11.7s7.4,0.3,11.7-4s4-11.7,4-11.7S47.9,155.1,43.5,159.5z"/>
		</defs>
		<clipPath id="SVGID_60_">
			<use xlink:href="#SVGID_59_"  style="overflow:visible;"/>
		</clipPath>
		<g class="st35">
			<rect x="-9.6" y="105.9" class="st8" width="73.4" height="69"/>
		</g>
	</g>
	<g>
		<defs>
			<path id="SVGID_61_" d="M63.9,178.2c-4.3,4.3-4,11.7-4,11.7s7.4,0.3,11.7-4s4-11.7,4-11.7S68.2,173.9,63.9,178.2z"/>
		</defs>
		<clipPath id="SVGID_62_">
			<use xlink:href="#SVGID_61_"  style="overflow:visible;"/>
		</clipPath>
		<g class="st36">
			<rect x="29" y="146" class="st8" width="73.4" height="69.1"/>
		</g>
	</g>
	<g>
		<defs>
			<path id="SVGID_63_" d="M71.6,201.3c-4.3-4.3-11.7-4-11.7-4s-0.3,7.4,4,11.7s11.7,4,11.7,4S76,205.7,71.6,201.3z"/>
		</defs>
		<clipPath id="SVGID_64_">
			<use xlink:href="#SVGID_63_"  style="overflow:visible;"/>
		</clipPath>
		<g class="st37">
			<rect x="42.8" y="165.7" class="st1" width="73.4" height="69.1"/>
		</g>
	</g>
	<path class="st1" d="M24,138.1c4.4,4.3,4,11.7,4,11.7s-7.4,0.3-11.7-4s-4-11.7-4-11.7S19.7,133.7,24,138.1z"/>
	<path class="st1" d="M24,116.6c4.4,4.3,4,11.7,4,11.7s-7.4,0.3-11.7-4c-4.3-4.3-4-11.7-4-11.7S19.7,112.3,24,116.6z"/>
	<path class="st28" d="M23.1,159.5c4.4,4.3,4,11.7,4,11.7s-7.4,0.3-11.7-4s-4-11.7-4-11.7S18.8,155.1,23.1,159.5z"/>
	<path class="st1" d="M42.7,138.1c-4.3,4.3-4,11.7-4,11.7s7.4,0.3,11.7-4s4-11.7,4-11.7S47,133.7,42.7,138.1z"/>
	<path class="st28" d="M42.7,116.6c-4.3,4.3-4,11.7-4,11.7s7.4,0.3,11.7-4c4.4-4.3,4-11.7,4-11.7S47,112.3,42.7,116.6z"/>
	<path class="st1" d="M43.5,159.5c-4.3,4.3-4,11.7-4,11.7s7.4,0.3,11.7-4s4-11.7,4-11.7S47.9,155.1,43.5,159.5z"/>
	<path class="st1" d="M63.9,178.2c-4.3,4.3-4,11.7-4,11.7s7.4,0.3,11.7-4s4-11.7,4-11.7S68.2,173.9,63.9,178.2z"/>
	<g>
		<defs>
			<path id="SVGID_65_" d="M50.4,222.4c-4.3,4.4-3.8,11.8-3.8,11.8s7.4,0.2,11.7-4.2s3.8-11.8,3.8-11.8S54.6,218,50.4,222.4z"/>
		</defs>
		<clipPath id="SVGID_66_">
			<use xlink:href="#SVGID_65_"  style="overflow:visible;"/>
		</clipPath>
		<g class="st38">
			<rect x="17.6" y="191.6" class="st1" width="73.4" height="69.1"/>
		</g>
	</g>
	<path class="st28" d="M50.4,222.4c-4.3,4.4-3.8,11.8-3.8,11.8s7.4,0.2,11.7-4.2s3.8-11.8,3.8-11.8S54.6,218,50.4,222.4z"/>
	<path class="st28" d="M71.6,201.3c-4.3-4.3-11.7-4-11.7-4s-0.3,7.4,4,11.7s11.7,4,11.7,4S76,205.7,71.6,201.3z"/>
	<path class="st28" d="M57.4,193.6c-9.1-0.1-15.8,6.4-17.2,14.7"/>
	<path class="st28" d="M188.3,226.4c0-0.8,0-1.7,0.1-2.5"/>
	<path class="st39" d="M189.5,219.2c2.3-6.2,8.3-10.3,14.9-10.1c8.2,0,10.7,3,10.7,5.8s-1.1,5.8-8.7,5.8
		c-12.1,0-15.7-11.3-16.4-22.1"/>
	<path class="st28" d="M189.8,196.1c0-0.9,0-1.7,0-2.5"/>
	<g>
		<defs>
			<path id="SVGID_67_" d="M99.4,239.4c-4.3,4.4-11.7,4-11.7,4s-0.3-7.4,4-11.7s11.7-4,11.7-4S103.8,235.1,99.4,239.4z"/>
		</defs>
		<clipPath id="SVGID_68_">
			<use xlink:href="#SVGID_67_"  style="overflow:visible;"/>
		</clipPath>
		<g class="st40">
			<rect x="63.3" y="193.6" class="st1" width="73.4" height="69"/>
		</g>
	</g>
	<g>
		<defs>
			<path id="SVGID_69_" d="M77.4,231.7c4.3,4.4,4,11.7,4,11.7s-7.4,0.3-11.7-4s-4-11.7-4-11.7S73.1,227.3,77.4,231.7z"/>
		</defs>
		<clipPath id="SVGID_70_">
			<use xlink:href="#SVGID_69_"  style="overflow:visible;"/>
		</clipPath>
		<g class="st41">
			<rect x="37.8" y="199.2" class="st1" width="73.4" height="69.1"/>
		</g>
	</g>
	<path class="st28" d="M99.4,239.4c-4.3,4.4-11.7,4-11.7,4s-0.3-7.4,4-11.7s11.7-4,11.7-4S103.8,235.1,99.4,239.4z"/>
	<path class="st28" d="M77.4,231.7c4.3,4.4,4,11.7,4,11.7s-7.4,0.3-11.7-4s-4-11.7-4-11.7S73.1,227.3,77.4,231.7z"/>
	<path class="st28" d="M84.8,245.9c2.8,2.9,2.6,13.5,0,17.2"/>
	<g>
		<defs>
			<path id="SVGID_71_" d="M171.8,239.4c4.3,4.4,11.7,4,11.7,4s0.3-7.4-4-11.7s-11.7-4-11.7-4S167.5,235.1,171.8,239.4z"/>
		</defs>
		<clipPath id="SVGID_72_">
			<use xlink:href="#SVGID_71_"  style="overflow:visible;"/>
		</clipPath>
		<g class="st42">
			<rect x="142.1" y="201.9" class="st8" width="73.4" height="69.1"/>
		</g>
	</g>
	<g>
		<defs>
			<path id="SVGID_73_" d="M193.8,231.7c-4.3,4.4-4,11.7-4,11.7s7.4,0.3,11.7-4s4-11.7,4-11.7S198.2,227.3,193.8,231.7z"/>
		</defs>
		<clipPath id="SVGID_74_">
			<use xlink:href="#SVGID_73_"  style="overflow:visible;"/>
		</clipPath>
		<g class="st43">
			<rect x="161" y="201" class="st1" width="73.4" height="69.1"/>
		</g>
	</g>
	<path class="st1" d="M171.8,239.4c4.3,4.4,11.7,4,11.7,4s0.3-7.4-4-11.7s-11.7-4-11.7-4S167.5,235.1,171.8,239.4z"/>
	<path class="st28" d="M193.8,231.7c-4.3,4.4-4,11.7-4,11.7s7.4,0.3,11.7-4s4-11.7,4-11.7S198.2,227.3,193.8,231.7z"/>
	<path class="st28" d="M186.5,245.9c-2.8,2.9-2.6,13.5,0,17.2"/>
	<path class="st28" d="M39.3,256c3.6,0,7.2-2.3,7.2-6.8v-11.1"/>
	<polyline class="st28" points="100.9,96.8 90.8,96.8 90.8,56.7 151.3,56.7 	"/>
	<path class="st28" d="M104.8,111.9v-15h66V56.7H155v4.6h11.2v7.6h-15.1v-7.6h-3.4"/>
	<line class="st28" x1="158.1" y1="111.9" x2="158.1" y2="99.9"/>
	<line class="st28" x1="158.8" y1="263.1" x2="158.8" y2="199.2"/>
	<line class="st28" x1="102.8" y1="223.3" x2="102.8" y2="199.2"/>
	<line class="st28" x1="102.8" y1="263.1" x2="102.8" y2="241.6"/>
	<polyline class="st28" points="136.5,61.3 147.7,61.3 147.7,68.9 132.6,68.9 132.6,61.3 129.1,61.3 	"/>
	<polyline class="st28" points="99.3,61.3 110.5,61.3 110.5,68.9 95.4,68.9 95.4,61.3 	"/>
	<polyline class="st28" points="110.5,61.3 114,61.3 114,68.9 129.1,68.9 129.1,61.3 118,61.3 	"/>
	<polyline class="st28" points="155,72.7 166.2,72.7 166.2,80.4 151.1,80.4 151.1,72.7 147.7,72.7 	"/>
	<polyline class="st28" points="136.5,72.7 147.7,72.7 147.7,80.4 132.6,80.4 132.6,72.7 129.1,72.7 	"/>
	<polyline class="st28" points="99.3,72.7 110.5,72.7 110.5,80.4 95.4,80.4 95.4,68.2 	"/>
	<polyline class="st28" points="110.5,72.7 114,72.7 114,80.4 129.1,80.4 129.1,72.7 118,72.7 	"/>
	<polyline class="st28" points="155,84.2 166.2,84.2 166.2,91.8 151.1,91.8 151.1,84.2 147.7,84.2 	"/>
	<polyline class="st28" points="136.5,84.2 147.7,84.2 147.7,91.8 132.6,91.8 132.6,84.2 129.1,84.2 	"/>
	<polyline class="st28" points="99.3,84.2 110.5,84.2 110.5,91.8 95.4,91.8 95.4,79.7 	"/>
	<polyline class="st28" points="110.5,84.2 114,84.2 114,91.8 129.1,91.8 129.1,84.2 118,84.2 	"/>
	<path class="st28" d="M106.8,40.6h-3.1v-7.3h2.9c3.2,0,5.9-2.6,5.9-5.9c0-3.2-2.6-5.9-5.9-5.9c-3.2,0-5.8,2.6-5.9,5.8
		c0,1.4,0.5,2.8,1.6,3.8"/>
	<path class="st28" d="M109.5,40.9l14.7,5.3h12.7l15.8-5.5v-7.3h2.9c3.2,0,5.9-2.6,5.9-5.9s-2.6-5.9-5.9-5.9c-3.2,0-5.9,2.6-5.9,5.9
		c0,0,0,0,0,0c-0.1,1.4,0.5,2.8,1.5,3.8"/>
	<polyline class="st28" points="158.4,35.3 158.4,40.5 155.4,40.5 	"/>
	<polyline class="st28" points="159,22.7 159,17.6 152.4,17.6 152.4,19.8 	"/>
	<path class="st28" d="M155.8,17.6v-3.5h-4.2c0,0,0.1-3.3,4.3-3.3s4.2,3.4,4.2,3.4h5.5"/>
	<line class="st28" x1="152.4" y1="14.1" x2="146.6" y2="14.1"/>
	<path class="st28" d="M166.3,15.9c1,1.1,2.8,1.3,3.9,0.2s1.3-2.8,0.2-3.9s-2.8-1.3-3.9-0.2c-0.6,0.5-0.9,1.3-0.9,2.1"/>
	<path class="st28" d="M145.9,15.9c-1,1.1-2.8,1.3-3.9,0.2s-1.3-2.8-0.2-3.9s2.8-1.3,3.9-0.2c0.6,0.5,0.9,1.3,0.9,2.1"/>
	<line class="st28" x1="109.5" y1="40.8" x2="109.5" y2="35.3"/>
	<polyline class="st28" points="110.2,22.7 110.2,17.6 103.5,17.6 103.5,19.8 	"/>
	<path class="st28" d="M106.8,17.6v-3.5h-4.2c0,0,0.2-3.3,4.3-3.3s4.2,3.4,4.2,3.4h7.6"/>
	<line class="st28" x1="103.5" y1="14.1" x2="97.7" y2="14.1"/>
	<path class="st28" d="M97,15.9c-1,1.1-2.8,1.2-3.9,0.2c-1.1-1-1.2-2.8-0.2-3.9s2.8-1.2,3.9-0.2c0.6,0.5,0.9,1.3,0.9,2.1"/>
	<line class="st28" x1="130.8" y1="46.1" x2="130.8" y2="53.7"/>
	<circle class="st44" cx="189.8" cy="188.7" r="1.6"/>
	<circle class="st45" cx="192.9" cy="188.7" r="1.5"/>
	<circle class="st45" cx="186.5" cy="188.7" r="1.5"/>
	<path class="st1" d="M214.8,100.3c-1.4,0-2.7,0.3-4,0.9c-2.6-6.7-10.2-10-16.9-7.3c-3,1.2-5.5,3.5-7,6.5c-0.2,0-0.4,0-0.6,0
		c-5.2,0-9.3,4.2-9.3,9.3s4.2,9.3,9.3,9.3l0,0h28.4c5.2,0,9.3-4.2,9.3-9.3S220,100.3,214.8,100.3z"/>
	<path class="st1" d="M198.9,160c1.1,0,2.3,0.3,3.3,0.7c2.2-5.6,8.4-8.4,14-6.2c2.6,1,4.7,3,5.9,5.5c0.2,0,0.3,0,0.5,0
		c4.3-0.2,7.9,3.2,8.1,7.5s-3.2,7.9-7.5,8.1c-0.2,0-0.4,0-0.6,0h-23.7c-4.3-0.2-7.7-3.8-7.5-8.1C191.5,163.5,194.8,160.2,198.9,160
		L198.9,160z"/>
	<path class="st1" d="M243.9,42.2c-1.2,0-2.4,0.2-3.6,0.5c-2.8-9.5-12.8-14.9-22.3-12c-5.9,1.8-10.4,6.4-12.1,12.3
		c-6.7-2.4-14.1,1.1-16.5,7.8c-2.4,6.7,1.1,14.1,7.8,16.5c1.4,0.5,2.9,0.8,4.4,0.8h42.4c7.1-0.2,12.8-6.1,12.6-13.3
		C256.2,47.9,250.7,42.4,243.9,42.2L243.9,42.2z"/>
	<path class="st28" d="M198.9,160c3.3,0,6.2,2,7.3,5.1"/>
	<path class="st28" d="M217.3,161.9c1.4-1.3,3.2-1.9,5.1-1.9"/>
	<path class="st28" d="M215.1,100.3c-3.9,0-7.4,2.4-8.7,6.1"/>
	<path class="st28" d="M192.4,102.6c-1.7-1.5-3.9-2.3-6.1-2.3"/>
	<path class="st28" d="M243.4,42.2c-3.9,0-7.3,2.5-8.7,6.1"/>
	<path class="st28" d="M208.4,44.6c-1.7-1.5-3.9-2.3-6.1-2.3"/>
</g>
</svg>
