<svg id="Layer_1" data-name="Layer 1" xmlns="http://www.w3.org/2000/svg" viewBox="0 0 518.5 907.7"><defs><style>.cls-1,.cls-3{fill:#44b14f;}.cls-2{fill:#fcfcfc;}.cls-3{font-size:100px;font-family:MyriadPro-Regular, Myriad Pro;}.cls-4{letter-spacing:-0.01em;}.cls-5{fill:#070707;}</style></defs><title>logo SVG</title><path class="cls-1" d="M846.49,672c-5.74,3.24-30.19-77.81-82.46-86-78.16-12.19-112,155.22-238.6,179C453,778.52,361.24,742.93,336,679c-20.4-51.61,8.9-105.45,19.3-124.56,42.48-78.09,132-117.39,210.52-119.3,99.79-2.42,167.6,55.85,187.72,73.69C829.46,576.13,852.54,668.54,846.49,672Z" transform="translate(-328.91 -34.81)"/><path class="cls-2" d="M366.37,740.85c11.95-33.28,48.75-122,136.58-174.26a297.21,297.21,0,0,1,82.45-33.33,285.76,285.76,0,0,1,126.32,0A291.15,291.15,0,0,0,585.4,550.8c-30.59,11.56-84.18,31.81-117.54,82.46-20.22,30.7-22.49,56.61-54.39,82.45A144.66,144.66,0,0,1,366.37,740.85Z" transform="translate(-328.91 -34.81)"/><path class="cls-1" d="M400.87,482.48l-3.51-171.93,14-8.77V247.39l14-12.28h40.35v82.46l19.3,3.51V265.81l26.32-9.65V312.3l19.3-8.77V124.58l10.28-14V70.2h10.77v43.86l9.16,12.28v98.24l25.93-19.29V179h12.28v24.56l26.6,24.56v86l29.54,17.54V286h22.8V331.6l10.53,7V370.2l21,21.05V370.2h14v19.3l22.81,21.05q-1.49,38.58-3,77.15c-9.43-10.22-79.64-83.81-188.28-77.15C468.35,415.88,413.87,469.06,400.87,482.48Z" transform="translate(-328.91 -34.81)"/><line class="cls-1" x1="217.51" y1="39.61" x2="217.27"/><text class="cls-3" transform="translate(118.51 846.74)"><tspan class="cls-4">A</tspan><tspan x="60.5" y="0">fms</tspan></text><path class="cls-5" d="M368.58,917.47h6.17c5,0,7.95,1.87,7.95,6a5.3,5.3,0,0,1-4.3,5.37V929c3.6.53,5.8,2.52,5.8,5.94,0,4.73-3.37,7.16-9,7.16h-6.64Zm5.49,10.79c5,0,6.95-1.61,6.95-4.75s-2.19-4.57-6.75-4.57h-4v9.32Zm.71,12.33c4.94,0,7.74-1.73,7.74-5.68,0-3.54-2.77-5.18-7.74-5.18h-4.51v10.86Z" transform="translate(-328.91 -34.81)"/><path class="cls-5" d="M391.55,933.12c0-5.84,4.25-9.43,8.88-9.43,4.85,0,7.93,3.16,7.93,8.3a7.83,7.83,0,0,1-.1,1.37H392.37V932h15.19l-.7.67c0-5.08-2.61-7.51-6.41-7.51s-7.22,2.92-7.22,8,3.57,8,7.77,8a10,10,0,0,0,5.94-1.93l.68,1.25a11.42,11.42,0,0,1-6.72,2.11A9,9,0,0,1,391.55,933.12Z" transform="translate(-328.91 -34.81)"/><path class="cls-5" d="M421.38,935.36v-9.78H416V924.3l5.39-.16.21-5.93H423v5.93h9.43v1.44H423v9.9c0,3.49,1,5.58,4.94,5.58a12.05,12.05,0,0,0,4.71-.93l.45,1.27a13.6,13.6,0,0,1-5.39,1.11C422.86,942.51,421.38,939.62,421.38,935.36Z" transform="translate(-328.91 -34.81)"/><path class="cls-5" d="M445.73,935.36v-9.78h-5.36V924.3l5.39-.16.22-5.93h1.39v5.93h9.42v1.44h-9.42v9.9c0,3.49,1,5.58,4.94,5.58a12.09,12.09,0,0,0,4.71-.93l.45,1.27a13.6,13.6,0,0,1-5.39,1.11C447.21,942.51,445.73,939.62,445.73,935.36Z" transform="translate(-328.91 -34.81)"/><path class="cls-5" d="M464.62,933.12c0-5.84,4.24-9.43,8.88-9.43,4.84,0,7.92,3.16,7.92,8.3a8.93,8.93,0,0,1-.09,1.37H465.44V932h15.18l-.69.67c0-5.08-2.62-7.51-6.41-7.51s-7.22,2.92-7.22,8,3.56,8,7.76,8a10,10,0,0,0,5.95-1.93l.67,1.25a11.42,11.42,0,0,1-6.72,2.11A9,9,0,0,1,464.62,933.12Z" transform="translate(-328.91 -34.81)"/><path class="cls-5" d="M492.16,924.14h1.39l.19,4.43h.07a10,10,0,0,1,8.33-4.88,7.61,7.61,0,0,1,3.57.75l-.46,1.48a8.32,8.32,0,0,0-3.34-.65c-3,0-5.65,1.52-8.11,5.6v11.19h-1.64Z" transform="translate(-328.91 -34.81)"/><path class="cls-5" d="M539.54,917.47h14.39V919H541.24v9.31h10.68v1.48H541.24v10.84H554.3v1.48H539.54Z" transform="translate(-328.91 -34.81)"/><path class="cls-5" d="M563.09,924.14h1.38l.18,3.44h.15c2-2.22,4.14-3.89,7-3.89,4.3,0,6.36,2.35,6.36,7.21v11.16h-1.64V931.12c0-4-1.47-5.93-5-5.93-2.51,0-4.25,1.32-6.8,4v12.84h-1.64Z" transform="translate(-328.91 -34.81)"/><path class="cls-5" d="M585.84,924.14h1.71l4.88,11.22c.78,1.8,1.53,3.54,2.21,5.15h.15c.68-1.61,1.35-3.35,2.14-5.15l4.89-11.22h1.6l-7.88,17.92H593.8Z" transform="translate(-328.91 -34.81)"/><path class="cls-5" d="M620.37,925.58H611.5v-1.44H622v17.92h-1.64Zm-1.3-7.58a1.74,1.74,0,1,1,1.74,1.79A1.7,1.7,0,0,1,619.07,918Z" transform="translate(-328.91 -34.81)"/><path class="cls-5" d="M638.29,924.14h1.39l.19,4.43h.07a10,10,0,0,1,8.33-4.88,7.61,7.61,0,0,1,3.57.75l-.46,1.48a8.32,8.32,0,0,0-3.34-.65c-3,0-5.65,1.52-8.11,5.6v11.19h-1.64Z" transform="translate(-328.91 -34.81)"/><path class="cls-5" d="M659.11,933.14c0-6,3.94-9.45,8.58-9.45s8.59,3.45,8.59,9.45-3.94,9.37-8.59,9.37S659.11,939.07,659.11,933.14Zm15.46,0c0-4.72-2.88-8-6.88-8s-6.87,3.26-6.87,8,2.88,7.91,6.87,7.91S674.57,937.85,674.57,933.14Z" transform="translate(-328.91 -34.81)"/><path class="cls-5" d="M683.71,924.14h1.36l.18,2.44h.07c1-1.76,2.11-2.89,4.1-2.89s3,1,3.53,3.19c1.27-2,2.35-3.19,4.34-3.19,2.45,0,3.85,1.79,3.85,5.39v13h-1.63V929.25c0-2.69-.83-4.08-2.54-4.08s-2.59,1.13-3.76,3.37v13.52h-1.57V929.25c0-2.69-.81-4.08-2.52-4.08s-2.63,1.13-3.78,3.37v13.52h-1.63Z" transform="translate(-328.91 -34.81)"/><path class="cls-5" d="M708.17,933.12c0-5.84,4.24-9.43,8.88-9.43,4.84,0,7.92,3.16,7.92,8.3a8.93,8.93,0,0,1-.09,1.37H709V932h15.18l-.69.67c0-5.08-2.62-7.51-6.41-7.51s-7.22,2.92-7.22,8,3.56,8,7.76,8a10,10,0,0,0,5.95-1.93l.67,1.25a11.42,11.42,0,0,1-6.72,2.11A9,9,0,0,1,708.17,933.12Z" transform="translate(-328.91 -34.81)"/><path class="cls-5" d="M733.58,924.14H735l.18,3.44h.14c2.05-2.22,4.14-3.89,7-3.89,4.29,0,6.36,2.35,6.36,7.21v11.16H747V931.12c0-4-1.48-5.93-5-5.93-2.52,0-4.25,1.32-6.8,4v12.84h-1.64Z" transform="translate(-328.91 -34.81)"/><path class="cls-5" d="M762.34,935.36v-9.78H757V924.3l5.4-.16.21-5.93H764v5.93h9.43v1.44H764v9.9c0,3.49,1,5.58,4.94,5.58a12.05,12.05,0,0,0,4.71-.93l.45,1.27a13.6,13.6,0,0,1-5.39,1.11C763.83,942.51,762.34,939.62,762.34,935.36Z" transform="translate(-328.91 -34.81)"/></svg>